#!OML:ASF I:\Actors\actors\Patient Classification 2\Patient 1\Session 1\actor1.ASF
:FULLY-SPECIFIED
:DEGREES
639
root -1.11991 18.088 6.10779 0.403459 -4.00707 -6.03043
lowerback 2.27527 1.32589 3.46061
upperback -0.0113291 1.87384 1.15575
thorax -1.21485 0.918188 -0.813332
lowerneck -15.1105 -1.79352 1.36483
upperneck 21.5226 -2.98887 0.555077
head 9.25633 -1.22382 -0.405798
rclavicle -1.42504e-014 -2.78299e-015
rhumerus -47.9449 -3.83436 -85.7589
rradius 42.9054
rwrist 10.3435
rhand -7.62541 -29.4591
rfingers 7.12502
rthumb 18.2692 -58.6212
lclavicle -1.42504e-014 -2.78299e-015
lhumerus -41.0905 -0.296803 91.3077
lradius 40.4983
lwrist -1.64643
lhand -9.50967 -26.5625
lfingers 7.12502
lthumb 16.4558 2.75956
rfemur 9.7715 -8.10061 21.5405
rtibia -1.11319e-014
rfoot -13.1395 -3.77873
rtoes 9.43992
lfemur 20.6669 -9.03772 -11.8206
ltibia -21.3238
lfoot -4.10705 21.8097
ltoes -1.35556
640
root -1.11255 18.0878 6.10653 0.411249 -4.01382 -6.00593
lowerback 2.27971 1.30512 3.45424
upperback -0.0101892 1.84607 1.14951
thorax -1.21724 0.904317 -0.815453
lowerneck -15.1029 -1.82194 1.30622
upperneck 21.5964 -3.04536 0.679721
head 9.28375 -1.24021 -0.360789
rclavicle -8.57259e-016 -1.47101e-014
rhumerus -48.0451 -3.7872 -85.9726
rradius 42.9437
rwrist 10.3776
rhand -6.92678 -29.19
rfingers 7.12502
rthumb 18.9412 -58.2878
lclavicle -8.57259e-016 -1.47101e-014
lhumerus -41.3704 -0.0448021 91.2235
lradius 40.195
lwrist -1.9867
lhand -9.4087 -26.5751
lfingers 7.12502
lthumb 16.553 2.73884
rfemur 9.75294 -8.08815 21.4892
rtibia -6.36111e-015
rfoot -13.1525 -3.78669
rtoes 9.43964
lfemur 20.6439 -9.06388 -11.8789
ltibia -21.297
lfoot -4.11392 21.8242
ltoes -1.28682
641
root -1.10531 18.0879 6.10419 0.416618 -4.01145 -5.98169
lowerback 2.30108 1.28311 3.45976
upperback -0.00689406 1.81759 1.13512
thorax -1.22631 0.889909 -0.832936
lowerneck -15.1087 -1.84368 1.31204
upperneck 21.6374 -3.08521 0.707686
head 9.29947 -1.2547 -0.357472
rclavicle -9.86469e-015 -6.75868e-015
rhumerus -48.1349 -3.70707 -86.2035
rradius 43.0011
rwrist 10.3858
rhand -7.1128 -28.9225
rfingers 7.12502
rthumb 18.7623 -58.0377
lclavicle -9.86469e-015 -6.75868e-015
lhumerus -41.5523 0.276846 91.0565
lradius 39.8255
lwrist -2.4699
lhand -9.20063 -26.5056
lfingers 7.12502
lthumb 16.7533 2.79158
rfemur 9.73113 -8.08526 21.4396
rtibia 1.27222e-014
rfoot -13.1571 -3.80887
rtoes 9.23157
lfemur 20.6072 -9.03976 -11.923
ltibia -21.2682
lfoot -4.11117 21.779
ltoes -1.34389
642
root -1.09993 18.0892 6.10083 0.442351 -4.00298 -5.96376
lowerback 2.30301 1.25968 3.4605
upperback -0.00411173 1.78623 1.12269
thorax -1.22535 0.87425 -0.845145
lowerneck -15.0853 -1.85583 1.35218
upperneck 21.601 -3.10161 0.667757
head 9.28093 -1.26423 -0.379298
rclavicle 1.002e-014 2.26615e-014
rhumerus -48.1685 -3.60596 -86.4676
rradius 43.0072
rwrist 10.3828
rhand -7.13744 -28.9187
rfingers 7.12502
rthumb 18.7386 -58.0361
lclavicle 1.002e-014 2.26615e-014
lhumerus -41.6961 0.590098 90.8542
lradius 39.4685
lwrist -2.94835
lhand -8.98668 -26.4297
lfingers 7.12502
lthumb 16.9593 2.84986
rfemur 9.68791 -8.09003 21.4093
rtibia -1.11319e-014
rfoot -13.1578 -3.8233
rtoes 9.23371
lfemur 20.5231 -8.89927 -11.9265
ltibia -21.2204
lfoot -4.05155 21.6386
ltoes -1.46683
643
root -1.09592 18.0909 6.0979 0.464238 -4.01784 -5.97576
lowerback 2.28358 1.25502 3.47011
upperback 0.00537693 1.77909 1.12455
thorax -1.20477 0.871039 -0.847756
lowerneck -15.0574 -1.86817 1.38816
upperneck 21.579 -3.11833 0.631797
head 9.26674 -1.27362 -0.399143
rclavicle 7.21216e-015 2.42517e-014
rhumerus -48.1992 -3.53856 -86.7297
rradius 43.0099
rwrist 10.4442
rhand -6.85762 -29.2721
rfingers 7.12502
rthumb 19.0078 -58.3633
lclavicle 7.21216e-015 2.42517e-014
lhumerus -41.858 0.801783 90.6682
lradius 39.1592
lwrist -3.34764
lhand -8.9739 -26.7789
lfingers 7.12502
lthumb 16.9716 2.49965
rfemur 9.65058 -8.07383 21.4197
rtibia 1.59028e-015
rfoot -13.1334 -3.85817
rtoes 9.28704
lfemur 20.4483 -8.83373 -11.9107
ltibia -21.1402
lfoot -4.05206 21.5711
ltoes -1.60938
644
root -1.09193 18.0936 6.09526 0.460807 -4.03367 -5.97111
lowerback 2.25817 1.26025 3.43208
upperback 0.035534 1.78321 1.14277
thorax -1.16112 0.874331 -0.806892
lowerneck -15.0833 -1.88325 1.39043
upperneck 21.6062 -3.14508 0.648032
head 9.28124 -1.28357 -0.397779
rclavicle 6.19338e-015 1.43125e-014
rhumerus -48.2285 -3.4411 -86.9459
rradius 43.0238
rwrist 10.4943
rhand -6.60653 -29.5139
rfingers 7.12502
rthumb 19.2492 -58.5812
lclavicle 6.19338e-015 1.43125e-014
lhumerus -41.9593 1.06045 90.4624
lradius 38.8541
lwrist -3.83619
lhand -8.91282 -27.1692
lfingers 7.12502
lthumb 17.0304 2.10424
rfemur 9.64148 -8.05763 21.4114
rtibia 7.95139e-015
rfoot -13.0916 -3.92802
rtoes 9.1544
lfemur 20.3969 -8.8917 -11.94
ltibia -21.0388
lfoot -4.11376 21.6053
ltoes -1.64107
645
root -1.08713 18.0967 6.09147 0.441261 -4.03976 -5.90544
lowerback 2.26356 1.26602 3.32725
upperback 0.0672421 1.78777 1.16392
thorax -1.13526 0.877933 -0.726531
lowerneck -15.1349 -1.9004 1.33878
upperneck 21.6456 -3.16922 0.695149
head 9.30624 -1.29291 -0.376956
rclavicle 3.33275e-014 5.56597e-015
rhumerus -48.2628 -3.29163 -87.1042
rradius 43.027
rwrist 10.5182
rhand -6.57497 -29.5414
rfingers 7.12502
rthumb 19.2796 -58.6057
lclavicle 3.33275e-014 5.56597e-015
lhumerus -42.0111 1.4165 90.2324
lradius 38.57
lwrist -4.39907
lhand -8.62359 -26.842
lfingers 7.12502
lthumb 17.3087 2.40723
rfemur 9.63892 -8.05233 21.3424
rtibia -2.22639e-014
rfoot -13.0359 -3.99003
rtoes 9.18136
lfemur 20.3475 -8.96722 -12.0423
ltibia -20.9398
lfoot -4.19109 21.6703
ltoes -1.47758
646
root -1.08299 18.0993 6.0856 0.43308 -4.06375 -5.86717
lowerback 2.32037 1.28561 3.2579
upperback 0.0707712 1.81473 1.18115
thorax -1.16519 0.891429 -0.672392
lowerneck -15.1435 -1.9279 1.30745
upperneck 21.6522 -3.20395 0.71184
head 9.31085 -1.30964 -0.370454
rclavicle -2.09966e-015 3.18055e-015
rhumerus -48.317 -3.17244 -87.2666
rradius 43.0384
rwrist 10.5795
rhand -6.64801 -29.5693
rfingers 7.12502
rthumb 19.2093 -58.6406
lclavicle -2.09966e-015 3.18055e-015
lhumerus -42.0822 1.70075 89.9888
lradius 38.3466
lwrist -4.90571
lhand -8.06726 -26.458
lfingers 7.12502
lthumb 17.8441 2.74334
rfemur 9.60362 -8.0319 21.3166
rtibia 9.54166e-015
rfoot -12.9625 -4.02507
rtoes 9.50409
lfemur 20.2883 -9.01568 -12.1073
ltibia -20.8443
lfoot -4.29431 21.7337
ltoes -1.35928
647
root -1.08018 18.1016 6.07979 0.43666 -4.07977 -5.92591
lowerback 2.36643 1.30537 3.29234
upperback 0.0677057 1.84447 1.20745
thorax -1.19291 0.905719 -0.666828
lowerneck -15.1047 -1.9814 1.2749
upperneck 21.6236 -3.28125 0.763014
head 9.29502 -1.3433 -0.356304
rclavicle 2.1183e-015 6.36111e-015
rhumerus -48.3365 -3.09691 -87.4473
rradius 43.0336
rwrist 10.6367
rhand -6.38876 -29.7211
rfingers 7.12502
rthumb 19.4586 -58.7674
lclavicle 2.1183e-015 6.36111e-015
lhumerus -42.1479 1.95369 89.7016
lradius 38.148
lwrist -5.35401
lhand -7.5798 -26.4646
lfingers 7.12502
lthumb 18.3131 2.69331
rfemur 9.56503 -8.01949 21.393
rtibia -2.38542e-014
rfoot -12.8874 -4.05337
rtoes 9.85671
lfemur 20.2277 -9.02718 -12.0521
ltibia -20.7545
lfoot -4.33455 21.7394
ltoes -1.5384
648
root -1.07723 18.1036 6.07504 0.442855 -4.06346 -5.96659
lowerback 2.35445 1.31964 3.32072
upperback 0.081683 1.86355 1.22917
thorax -1.171 0.915575 -0.660457
lowerneck -15.0644 -2.03828 1.20879
upperneck 21.5972 -3.36176 0.843548
head 9.28092 -1.37791 -0.326895
rclavicle 1.03741e-014 -1.47101e-014
rhumerus -48.3245 -3.04085 -87.6004
rradius 43.0053
rwrist 10.6586
rhand -6.12644 -29.8397
rfingers 7.12502
rthumb 19.7108 -58.8603
lclavicle 1.03741e-014 -1.47101e-014
lhumerus -42.2216 2.11004 89.4481
lradius 38.0468
lwrist -5.67311
lhand -7.49134 -26.5355
lfingers 7.12502
lthumb 18.3982 2.61439
rfemur 9.54654 -8.0369 21.4409
rtibia -2.8625e-014
rfoot -12.8374 -4.09222
rtoes 9.84971
lfemur 20.1683 -8.98799 -12.0041
ltibia -20.6914
lfoot -4.31369 21.6772
ltoes -1.52546
649
root -1.07412 18.1058 6.06959 0.445336 -4.04686 -5.92149
lowerback 2.33318 1.33173 3.26585
upperback 0.101253 1.87662 1.22518
thorax -1.14014 0.923021 -0.633455
lowerneck -15.0018 -2.05412 1.19905
upperneck 21.5091 -3.38093 0.856473
head 9.23905 -1.38784 -0.321684
rclavicle 2.18042e-015 2.78299e-015
rhumerus -48.32 -2.95267 -87.7673
rradius 43.0073
rwrist 10.6721
rhand -6.19699 -29.7499
rfingers 7.12502
rthumb 19.643 -58.7775
lclavicle 2.18042e-015 2.78299e-015
lhumerus -42.2553 2.20089 89.204
lradius 37.9846
lwrist -5.92567
lhand -7.49049 -26.5684
lfingers 7.12502
lthumb 18.399 2.58149
rfemur 9.52866 -8.05359 21.3958
rtibia 1.59028e-014
rfoot -12.8093 -4.15162
rtoes 9.37746
lfemur 20.1075 -8.89345 -12.0434
ltibia -20.6495
lfoot -4.28164 21.5701
ltoes -1.32303
